<svg width="379.2" height="72.401" viewBox="0 0 379.2 72.401" xmlns="http://www.w3.org/2000/svg"><g id="svgGroup" stroke-linecap="round" fill-rule="evenodd" font-size="9pt" stroke="#006399" stroke-width="0.25mm" fill="#0066a1" style="stroke:#006399;stroke-width:0.25mm;fill:#0066a1"><path d="M 322.8 71.2 L 313.8 71.2 L 313.8 1.2 L 327.1 1.2 L 346.5 45.5 L 365.6 1.2 L 379.2 1.2 L 379.2 71.2 L 369.7 71.2 L 369.7 13.3 L 351 55.4 L 341.6 55.4 L 322.8 13.3 L 322.8 71.2 Z M 69.5 71.2 L 27.5 71.2 L 27.5 1.2 L 69.5 1.2 L 69.5 9.4 L 37 9.4 L 37 30.7 L 65 30.7 L 65 38.7 L 37 38.7 L 37 63 L 69.5 63 L 69.5 71.2 Z M 125 71.2 L 83 71.2 L 83 1.2 L 125 1.2 L 125 9.4 L 92.5 9.4 L 92.5 30.7 L 120.5 30.7 L 120.5 38.7 L 92.5 38.7 L 92.5 63 L 125 63 L 125 71.2 Z M 180.5 71.2 L 138.5 71.2 L 138.5 1.2 L 180.5 1.2 L 180.5 9.4 L 148 9.4 L 148 30.7 L 176 30.7 L 176 38.7 L 148 38.7 L 148 63 L 180.5 63 L 180.5 71.2 Z M 188 65.3 L 192.8 57.3 Q 196.4 60.3 200.9 62.2 A 23.348 23.348 0 0 0 206.27 63.71 A 32.118 32.118 0 0 0 211.4 64.1 A 27.981 27.981 0 0 0 215.947 63.754 Q 218.37 63.354 220.331 62.494 A 13.701 13.701 0 0 0 222.8 61.1 Q 226.848 58.209 226.995 53.366 A 12.116 12.116 0 0 0 227 53 A 11.94 11.94 0 0 0 226.663 50.107 A 9.816 9.816 0 0 0 225.8 47.85 A 8.097 8.097 0 0 0 224.6 46.194 Q 223.33 44.813 221.184 43.471 A 25.81 25.81 0 0 0 221.15 43.45 Q 218.034 41.508 212.265 39.28 A 118.584 118.584 0 0 0 211 38.8 Q 203.8 36 199.5 33.15 A 21.931 21.931 0 0 1 196.411 30.703 Q 194.694 29.053 193.638 27.188 A 13.303 13.303 0 0 1 193.35 26.65 Q 191.5 23 191.5 18 Q 191.5 13 194.25 8.95 Q 197 4.9 202.35 2.45 A 25.558 25.558 0 0 1 208.25 0.615 Q 211.493 0 215.3 0 Q 221.5 0 226.45 1.25 Q 231.4 2.5 236.1 4.8 L 232.6 12.9 A 31.496 31.496 0 0 0 228.474 10.881 A 41.686 41.686 0 0 0 224.65 9.55 Q 220.1 8.2 215.1 8.2 A 27.187 27.187 0 0 0 211.07 8.48 Q 208.938 8.8 207.2 9.487 A 12.616 12.616 0 0 0 204.7 10.8 A 9.902 9.902 0 0 0 202.537 12.765 A 7.359 7.359 0 0 0 200.9 17.5 A 10.464 10.464 0 0 0 201.192 20.022 A 8.562 8.562 0 0 0 202 22.1 Q 203.056 24.019 206.091 25.847 A 23.503 23.503 0 0 0 206.35 26 A 33.003 33.003 0 0 0 208.566 27.172 Q 210.835 28.275 214.046 29.523 A 130.016 130.016 0 0 0 216.1 30.3 A 81.228 81.228 0 0 1 221.078 32.329 Q 225.464 34.3 228.45 36.4 A 26.044 26.044 0 0 1 231.49 38.878 Q 233.713 41.006 234.9 43.35 A 17.579 17.579 0 0 1 236.641 49.213 A 22.155 22.155 0 0 1 236.8 51.9 A 21.71 21.71 0 0 1 236.133 57.401 A 17.105 17.105 0 0 1 233.55 63 Q 230.3 67.6 224.55 70 A 30.521 30.521 0 0 1 217.14 72.004 A 40.027 40.027 0 0 1 211.4 72.4 Q 204.1 72.4 198.1 70.45 A 38.206 38.206 0 0 1 192.733 68.268 A 28.433 28.433 0 0 1 188 65.3 Z M 250.8 71 L 250.8 1.4 A 100.907 100.907 0 0 1 252.656 1.206 Q 255.553 0.93 259.376 0.707 A 270.552 270.552 0 0 1 259.5 0.7 A 168.416 168.416 0 0 1 264.337 0.495 Q 266.808 0.424 269.545 0.406 A 285.352 285.352 0 0 1 271.4 0.4 Q 279.8 0.4 285.659 2.489 A 22.604 22.604 0 0 1 291.1 5.25 A 16.711 16.711 0 0 1 295.663 9.907 Q 297.854 13.34 297.991 17.801 A 19.526 19.526 0 0 1 298 18.4 A 17.052 17.052 0 0 1 297.373 23.12 A 13.798 13.798 0 0 1 295.05 27.75 Q 292.1 31.6 286.5 34.1 A 30.217 30.217 0 0 1 291.136 36.16 Q 294.613 38.094 296.8 40.75 Q 300.3 45 300.3 51.2 Q 300.3 60.515 293.09 66.128 A 22.979 22.979 0 0 1 292.8 66.35 A 24.681 24.681 0 0 1 285.423 70.06 Q 279.379 72 271 72 A 221.836 221.836 0 0 1 262.92 71.858 A 187.566 187.566 0 0 1 259.45 71.7 A 227.449 227.449 0 0 1 256.866 71.544 Q 254.059 71.357 251.995 71.138 A 65.535 65.535 0 0 1 250.8 71 Z M 9.5 71.2 L 0 71.2 L 0 1.2 L 9.5 1.2 L 9.5 71.2 Z M 271.7 38.8 L 260.3 38.8 L 260.3 63.5 Q 265.6 64.1 271.7 64.1 Q 280.6 64.1 285.6 60.9 Q 290.6 57.7 290.6 51.6 A 11.728 11.728 0 0 0 289.728 47 Q 288.626 44.387 286.133 42.513 A 14.027 14.027 0 0 0 285.7 42.2 A 16.7 16.7 0 0 0 281.026 39.999 Q 277.103 38.8 271.7 38.8 Z M 260.3 8.6 L 260.3 31.4 L 271.3 31.4 Q 279.2 31.4 283.85 28.1 Q 288.5 24.8 288.5 19.6 A 10.798 10.798 0 0 0 287.826 15.701 Q 286.739 12.871 283.9 11.05 A 16.643 16.643 0 0 0 279.414 9.086 Q 275.925 8.1 271.3 8.1 Q 268 8.1 265.3 8.25 Q 262.6 8.4 260.3 8.6 Z" vector-effect="non-scaling-stroke"/></g></svg>